<?xml version="1.0" standalone="no"?>
<!DOCTYPE svg PUBLIC "-//W3C//DTD SVG 20010904//EN"
 "http://www.w3.org/TR/2001/REC-SVG-20010904/DTD/svg10.dtd">
<svg version="1.0" xmlns="http://www.w3.org/2000/svg"
 width="700.000000pt" height="700.000000pt" viewBox="0 0 700.000000 700.000000"
 preserveAspectRatio="xMidYMid meet">
<metadata>
Created by potrace 1.11, written by Peter Selinger 2001-2013
</metadata>
<g transform="translate(0.000000,700.000000) scale(0.100000,-0.100000)"
fill="#000000" stroke="none">
<path d="M3280 6987 c-3 -3 -43 -8 -90 -11 -47 -4 -96 -8 -110 -10 -14 -3 -48
-7 -76 -10 -28 -4 -61 -9 -75 -11 -13 -3 -40 -8 -59 -11 -19 -3 -82 -17 -140
-30 -943 -212 -1766 -821 -2257 -1669 -185 -319 -352 -771 -417 -1125 -39
-214 -67 -681 -46 -776 5 -21 11 -77 14 -124 43 -633 307 -1314 714 -1840 554
-716 1369 -1195 2257 -1325 22 -4 51 -8 64 -10 13 -2 63 -7 110 -11 47 -3 97
-8 111 -10 33 -5 426 -5 465 0 17 3 64 7 105 11 86 7 101 9 265 36 66 11 127
22 135 25 8 3 29 8 45 11 141 23 483 141 700 243 163 76 497 274 530 315 6 6
28 23 50 37 69 44 255 204 373 321 392 387 673 829 852 1342 67 192 78 233
124 455 36 175 38 189 59 375 14 125 16 484 3 630 -39 431 -162 857 -361 1250
-71 142 -204 366 -257 435 -11 14 -44 59 -75 100 -98 133 -178 224 -333 380
-268 268 -566 481 -908 648 -134 66 -155 75 -277 125 -229 94 -569 179 -845
213 -30 3 -71 8 -90 11 -50 6 -555 15 -560 10z m488 -2217 c474 -96 853 -444
987 -905 134 -463 12 -949 -320 -1280 -205 -206 -428 -322 -709 -371 -100 -18
-279 -24 -359 -13 -124 17 -145 21 -197 35 -223 62 -410 167 -569 319 -177
169 -294 367 -360 605 -43 153 -55 375 -31 537 58 383 316 746 670 940 260
144 592 193 888 133z"/>
</g>
</svg>
